<svg width="205" height="123" viewBox="0 0 205 123" fill="none" xmlns="http://www.w3.org/2000/svg">
<path fill-rule="evenodd" clip-rule="evenodd" d="M204.611 42.8465C204.999 41.6491 204.87 41.9054 203.576 41.1365C181.776 32.0842 142.369 15.0058 122.829 6.66386C112.995 1.79412 104.909 0.0010912 102.71 0V4.97497C104.78 4.99789 106.309 5.89627 106.783 6.4516C106.266 8.11756 103.591 8.67288 102.772 8.75832V14.0125C119.689 34.0918 139.521 35.626 143.922 36.0105C143.922 36.0105 151.039 36.8543 156.344 37.5483C163.202 38.4453 168.378 39.5987 168.378 39.5987C172.002 40.1113 182.078 44.3552 184.554 45.4937C188.436 47.2786 189.73 47.9285 193.482 49.5945C196.588 50.6197 196.588 50.7478 197.106 51.1323C197.656 51.5414 198.141 51.9012 198.529 51.3886C198.725 51.1292 198.788 50.7478 198.917 50.2793L200.082 46.2626C200.168 45.7072 200.599 44.8273 201.635 45.2374C202.67 45.6474 202.972 45.8354 203.187 45.4937C203.274 45.4082 204.045 44.5927 204.611 42.8465ZM110.795 7.68907C108.31 10.9697 106.136 12.0462 105.36 12.1744C116.618 26.8129 132.275 31.9096 143.275 33.4474C155.956 35.2205 159.191 35.7285 168.378 37.5483C174.202 38.7016 186.753 44.383 194.388 48.0567C195.423 48.4411 195.682 48.6974 196.07 47.8004L196.717 45.6218C196.976 44.2963 197.019 43.3872 196.329 43.1869C193.948 41.9214 138.487 19.2934 110.795 7.68907Z" fill="white"/>
<path fill-rule="evenodd" clip-rule="evenodd" d="M0.933812 42.8465C0.545611 41.6491 0.675014 41.9054 1.96902 41.1365C23.7682 32.0842 63.1753 15.0058 82.7148 6.66386C92.5492 1.79412 100.572 0.0010912 102.772 0V4.97286C100.639 5.12605 99.2349 5.89627 98.7604 6.4516C99.278 8.11756 101.952 8.67288 102.772 8.75832V14.0125C85.8545 34.0918 66.0226 35.626 61.6225 36.0105C61.6225 36.0105 54.5055 36.8543 49.2001 37.5483C42.3419 38.4453 37.1659 39.5987 37.1659 39.5987C33.5427 40.1113 23.4667 44.3552 20.9909 45.4937C17.1089 47.2786 15.8148 47.9285 12.0622 49.5945C8.95663 50.6197 8.95663 50.7478 8.43903 51.1323C7.88827 51.5414 7.40383 51.9012 7.01563 51.3886C6.81921 51.1292 6.75683 50.7478 6.62743 50.2793L5.46283 46.2626C5.37656 45.7072 4.94523 44.8273 3.91002 45.2374C2.87482 45.6474 2.57289 45.8354 2.35722 45.4937C2.27095 45.4082 1.49992 44.5927 0.933812 42.8465ZM94.749 7.68907C97.2335 10.9697 99.4074 12.0462 100.184 12.1744C88.926 26.8129 73.2686 31.9096 62.2695 33.4474C49.5883 35.2205 46.3533 35.7285 37.1659 37.5483C31.3429 38.7016 18.791 44.383 11.1564 48.0567C10.1212 48.4411 9.86243 48.6974 9.47423 47.8004L8.82723 45.6218C8.56843 44.2963 8.5253 43.3872 9.21543 43.1869C11.5964 41.9214 67.0573 19.2934 94.749 7.68907Z" fill="white"/>
<path d="M50.1906 43.3159C61.1809 43.3151 165.867 43.3152 168.325 43.3151C169.431 43.315 167.031 46.5188 166.255 46.5188C165.846 46.5188 164.832 46.5188 164.832 46.5188C161.592 47.9286 159.347 53.8884 158.87 62.1533H156.153C156.153 59.5903 157.192 51.6449 161.592 46.5188C154.221 46.5188 61.8191 46.5197 56.7812 46.5197C55.4872 46.5197 53.6666 54.3362 53.6666 62.1533C53.6666 62.1533 52.502 62.1533 51.208 62.1533C51.208 56.3866 52.1228 52.1576 53.6756 46.5197C46.5585 46.5197 42.3027 52.1576 41.7851 62.1533H36.9738C36.715 56.6428 39.2003 43.3168 50.1906 43.3159Z" fill="white" stroke="white"/>
<path d="M50.1998 81.1189C61.1979 81.1197 165.958 81.1196 168.418 81.1198C169.524 81.1198 167.123 77.916 166.346 77.916C165.937 77.916 164.922 77.916 164.922 77.916C161.68 76.5062 159.347 70.5464 158.87 62.2815H156.153C156.153 64.8445 157.277 72.79 161.68 77.916C154.303 77.916 61.8365 77.9151 56.7951 77.9151C55.5002 77.9151 53.6665 70.0987 53.6665 62.2816C53.6665 62.2816 52.5028 62.2816 51.2079 62.2816C51.2079 68.0483 52.1334 72.2773 53.6873 77.9151C46.5652 77.9151 42.5379 72.2772 41.7739 62.2816H36.9737C37.1031 67.7919 39.2018 81.118 50.1998 81.1189Z" fill="white" stroke="white"/>
<path d="M155.488 84.3243C144.497 84.3234 39.8115 84.3236 37.3528 84.3234C36.2475 84.3234 38.6469 87.5272 39.4233 87.5272C39.8326 87.5272 40.8467 87.5272 40.8467 87.5272C44.0862 88.937 46.5901 94.8967 47.067 103.162H49.5256C49.5256 100.599 48.4858 92.6532 44.0862 87.5272C51.4576 87.5272 143.859 87.5281 148.897 87.5281C150.191 87.5281 152.141 95.3445 152.141 103.162C152.141 103.162 153.176 103.162 154.47 103.162C154.47 97.3949 153.556 93.166 152.003 87.5281C159.12 87.5281 163.39 93.166 163.908 103.162H168.687C168.945 97.6512 166.478 84.3251 155.488 84.3243Z" fill="white" stroke="white"/>
<path d="M155.478 121.999C144.48 122 39.7203 122 37.26 122C36.1539 122 38.5549 118.796 39.3319 118.796C39.7415 118.796 40.7563 118.796 40.7563 118.796C43.998 117.386 46.5897 111.427 47.067 103.162L49.5256 103.162C49.5256 105.725 48.4008 113.67 43.998 118.796C51.3747 118.796 143.842 118.795 148.883 118.795C150.178 118.795 152.141 110.979 152.141 103.162C152.141 103.162 153.175 103.162 154.47 103.162C154.47 108.928 153.545 113.158 151.991 118.795C159.113 118.795 163.386 113.158 163.904 103.162H168.687C168.946 108.672 166.476 121.998 155.478 121.999Z" fill="white" stroke="white"/>
</svg>
